<?xml version="1.0" standalone="no"?>
<!DOCTYPE svg PUBLIC "-//W3C//DTD SVG 20010904//EN"
 "http://www.w3.org/TR/2001/REC-SVG-20010904/DTD/svg10.dtd">
<svg version="1.0" xmlns="http://www.w3.org/2000/svg"
 width="225.000000pt" height="225.000000pt" viewBox="0 0 225.000000 225.000000"
 preserveAspectRatio="xMidYMid meet">

<g transform="translate(0.000000,225.000000) scale(0.100000,-0.100000)"
fill="#000000" stroke="none">
<path d="M900 2105 c-126 -27 -282 -95 -385 -169 -173 -124 -315 -326 -382
-543 -25 -82 -27 -101 -27 -273 -1 -164 2 -194 22 -264 72 -250 212 -444 419
-583 90 -60 224 -123 262 -123 38 0 52 39 49 140 l-3 92 -85 2 c-68 1 -94 6
-130 24 -60 31 -114 85 -150 149 -16 28 -50 68 -75 89 -52 44 -56 61 -18 70
36 10 106 -29 147 -80 17 -22 50 -59 72 -83 40 -42 43 -43 105 -43 76 0 139
16 139 34 0 8 13 38 28 68 l29 54 -64 12 c-261 50 -387 201 -388 467 0 114 16
172 68 249 l33 49 -14 55 c-14 57 -9 117 17 184 9 24 14 26 48 21 51 -8 152
-46 199 -75 37 -23 41 -24 94 -11 74 18 287 21 378 4 l72 -13 83 40 c96 47
186 70 199 50 27 -42 36 -148 18 -223 -7 -33 -6 -43 9 -60 11 -11 31 -45 47
-75 25 -49 29 -68 32 -171 3 -89 0 -131 -13 -175 -50 -174 -161 -272 -354
-312 l-79 -16 26 -46 c26 -44 27 -50 32 -248 5 -222 7 -228 65 -217 40 7 183
76 250 120 78 52 186 155 244 233 383 517 199 1250 -383 1523 -144 67 -209 81
-401 85 -119 2 -190 -1 -235 -11z"/>
</g>
</svg>
